<?xml version="1.0" standalone="no"?>
<svg xmlns:xlink="http://www.w3.org/1999/xlink" id="wave" style="transform:rotate(0deg); transition: 0.3s" viewBox="0 0 1440 100" version="1.1" xmlns="http://www.w3.org/2000/svg"><defs><linearGradient id="sw-gradient-0" x1="0" x2="0" y1="1" y2="0"><stop stop-color="rgba(18, 79, 136, 1)" offset="0%"/><stop stop-color="rgba(156.747, 177.103, 196.124, 1)" offset="100%"/></linearGradient></defs><path style="transform:translate(0, 0px); opacity:1" fill="url(#sw-gradient-0)" d="M0,20L60,28.3C120,37,240,53,360,61.7C480,70,600,70,720,58.3C840,47,960,23,1080,15C1200,7,1320,13,1440,21.7C1560,30,1680,40,1800,45C1920,50,2040,50,2160,51.7C2280,53,2400,57,2520,55C2640,53,2760,47,2880,50C3000,53,3120,67,3240,66.7C3360,67,3480,53,3600,53.3C3720,53,3840,67,3960,68.3C4080,70,4200,60,4320,55C4440,50,4560,50,4680,46.7C4800,43,4920,37,5040,38.3C5160,40,5280,50,5400,51.7C5520,53,5640,47,5760,48.3C5880,50,6000,60,6120,60C6240,60,6360,50,6480,38.3C6600,27,6720,13,6840,8.3C6960,3,7080,7,7200,11.7C7320,17,7440,23,7560,30C7680,37,7800,43,7920,41.7C8040,40,8160,30,8280,33.3C8400,37,8520,53,8580,61.7L8640,70L8640,100L8580,100C8520,100,8400,100,8280,100C8160,100,8040,100,7920,100C7800,100,7680,100,7560,100C7440,100,7320,100,7200,100C7080,100,6960,100,6840,100C6720,100,6600,100,6480,100C6360,100,6240,100,6120,100C6000,100,5880,100,5760,100C5640,100,5520,100,5400,100C5280,100,5160,100,5040,100C4920,100,4800,100,4680,100C4560,100,4440,100,4320,100C4200,100,4080,100,3960,100C3840,100,3720,100,3600,100C3480,100,3360,100,3240,100C3120,100,3000,100,2880,100C2760,100,2640,100,2520,100C2400,100,2280,100,2160,100C2040,100,1920,100,1800,100C1680,100,1560,100,1440,100C1320,100,1200,100,1080,100C960,100,840,100,720,100C600,100,480,100,360,100C240,100,120,100,60,100L0,100Z"/></svg>